<svg  height="30" width="30"><path  d=" M 6.339745962155611 10.000000000000002 L 5.9369221296334995 10.773817382593005 L 5.603073792140915 11.579798566743314 L 5.340741737109317 12.41180954897479 L 5.1519224698779205 13.263518223330697 L 5.038053019082545 14.128442572523417 L 5 15 L 5.038053019082545 15.871557427476583 L 5.1519224698779205 16.736481776669304 L 5.340741737109317 17.588190451025206 L 5.603073792140917 18.42020143325669 L 5.936922129633501 19.226182617406995 L 6.3397459621556145 20 L 6.808479557110083 20.735764363510462 L 7.33955556881022 21.427876096865393 L 7.928932188134525 22.071067811865476 L 8.572123903134607 22.66044443118978 L 9.26423563648954 23.191520442889917 L 10 23.66025403784439 L 10.773817382593005 24.0630778703665 L 11.579798566743314 24.396926207859085 L 12.411809548974793 24.65925826289068 L 13.263518223330697 24.84807753012208 L 14.128442572523419 24.961946980917453 L 15 25 L 15.871557427476581 24.961946980917453 L 16.736481776669304 24.84807753012208 L 17.588190451025206 24.65925826289068 L 18.420201433256686 24.396926207859085 L 19.226182617406995 24.0630778703665 L 20 23.66025403784439 L 20.735764363510462 23.191520442889917 L 21.427876096865393 22.66044443118978 L 22.071067811865476 22.071067811865476 L 22.66044443118978 21.427876096865393 L 23.191520442889917 20.735764363510462 L 23.660254037844386 20 L 24.0630778703665 19.226182617406995 L 24.39692620785908 18.42020143325669 L 24.65925826289068 17.588190451025206 L 24.84807753012208 16.736481776669304 L 24.961946980917453 15.871557427476583 L 25 15 L 24.961946980917453 14.128442572523417 L 24.84807753012208 13.263518223330697 L 24.65925826289068 12.41180954897479 L 24.396926207859085 11.579798566743314 L 24.0630778703665 10.773817382593005 L 23.66025403784439 10.000000000000002 L 23.19152044288992 9.264235636489541 L 22.66044443118978 8.572123903134607 L 22.071067811865476 7.928932188134525 L 21.427876096865397 7.339555568810221 L 20.73576436351046 6.808479557110081 L 20 6.339745962155613 L 19.226182617406995 5.936922129633501 L 18.42020143325669 5.603073792140917 L 17.58819045102521 5.340741737109319 L 16.736481776669308 5.1519224698779205 L 15.871557427476581 5.038053019082545 L 15.000000000000002 5 L 15.000000000000002 6 L 15.784401684728923 6.03424771717429 L 16.562833599002378 6.136730222890128 L 17.32937140592269 6.306667563398387 L 18.07818128993102 6.5427664129268255 L 18.803564355666296 6.8432299166701505 L 19.5 7.205771365940052 L 20.162187927159415 7.627631601399073 L 20.785088487178854 8.105600011929198 L 21.36396103067893 8.636038969321072 L 21.894399988070802 9.214911512821146 L 22.372368398600926 9.837812072840588 L 22.794228634059948 10.500000000000002 L 23.15677008332985 11.196435644333706 L 23.457233587073176 11.921818710068981 L 23.693332436601615 12.670628594077312 L 23.86326977710987 13.437166400997627 L 23.96575228282571 14.215598315271077 L 24 15 L 23.96575228282571 15.784401684728925 L 23.86326977710987 16.562833599002374 L 23.693332436601615 17.329371405922686 L 23.457233587073176 18.07818128993102 L 23.15677008332985 18.803564355666296 L 22.794228634059948 19.5 L 22.372368398600926 20.162187927159415 L 21.894399988070802 20.785088487178854 L 21.36396103067893 21.36396103067893 L 20.785088487178854 21.894399988070802 L 20.162187927159415 22.372368398600926 L 19.5 22.794228634059948 L 18.803564355666296 23.15677008332985 L 18.078181289931017 23.457233587073176 L 17.329371405922686 23.693332436601615 L 16.562833599002374 23.86326977710987 L 15.784401684728923 23.96575228282571 L 15 24 L 14.215598315271077 23.96575228282571 L 13.437166400997627 23.86326977710987 L 12.670628594077314 23.693332436601615 L 11.921818710068981 23.457233587073176 L 11.196435644333706 23.15677008332985 L 10.5 22.794228634059948 L 9.837812072840585 22.372368398600926 L 9.214911512821146 21.894399988070802 L 8.636038969321072 21.36396103067893 L 8.105600011929198 20.785088487178854 L 7.627631601399074 20.162187927159415 L 7.205771365940053 19.5 L 6.8432299166701505 18.803564355666296 L 6.5427664129268255 18.07818128993102 L 6.306667563398385 17.329371405922686 L 6.136730222890128 16.562833599002374 L 6.03424771717429 15.784401684728925 L 6 15 L 6.03424771717429 14.215598315271077 L 6.136730222890128 13.437166400997627 L 6.306667563398385 12.670628594077312 L 6.542766412926824 11.921818710068981 L 6.8432299166701505 11.196435644333706 L 7.20577136594005 10.500000000000002,L 6.339745962155611 10.000000000000002" ></path></svg>