<svg  height="30" width="30"><g><path  d=" M 5.603073792140917 18.42020143325669 L 6.3397459621556145 20 L 7.33955556881022 21.427876096865393 L 8.572123903134607 22.66044443118978 L 10 23.66025403784439 L 11.579798566743314 24.396926207859085 L 13.263518223330697 24.84807753012208 L 15 25 L 16.736481776669304 24.84807753012208 L 18.420201433256686 24.396926207859085 L 20 23.66025403784439 L 21.427876096865393 22.66044443118978 L 22.66044443118978 21.427876096865393 L 23.660254037844386 20 L 24.39692620785908 18.42020143325669 L 24.84807753012208 16.736481776669304 L 25 15 L 24.84807753012208 13.263518223330697 L 24.396926207859085 11.579798566743314 L 23.66025403784439 10.000000000000002 L 22.66044443118978 8.572123903134607 L 21.427876096865397 7.339555568810221 L 20 6.339745962155613 L 18.42020143325669 5.603073792140917 L 16.736481776669308 5.1519224698779205 L 15.000000000000002 5 L 15 15 L 15 15 L 15 15 L 15 15 L 15 15 L 15 15 L 15 15 L 15 15 L 15 15 L 15 15 L 15 15 L 15 15 L 15 15 L 15 15 L 15 15 L 15 15 L 15 15 L 15 15 L 15 15 L 15 15 L 15 15 L 15 15 L 15 15 L 15 15 L 15 15 L 15 15,L 5.603073792140917 18.42020143325669" ></path></svg>