<svg  height="30" width="30"><path  d=" M 24.396926207859085 11.579798566743314 L 24.0630778703665 10.773817382593005 L 23.66025403784439 10.000000000000002 L 23.19152044288992 9.264235636489541 L 22.66044443118978 8.572123903134607 L 22.071067811865476 7.928932188134525 L 21.427876096865397 7.339555568810221 L 20.73576436351046 6.808479557110081 L 20 6.339745962155613 L 19.226182617406995 5.936922129633501 L 18.42020143325669 5.603073792140917 L 17.58819045102521 5.340741737109319 L 16.736481776669308 5.1519224698779205 L 15.871557427476581 5.038053019082545 L 15.000000000000002 5 L 15.000000000000002 7 L 15.697245941981265 7.030442415266036 L 16.389185421335444 7.121537975902336 L 17.07055236082017 7.272593389687454 L 17.73616114660535 7.4824590337127335 L 18.380946093925594 7.7495377037068005 L 19 8.07179676972449 L 19.58861149080837 8.446783645688065 L 20.142300877492318 8.871644455048177 L 20.65685424949238 9.34314575050762 L 21.128355544951823 9.857699122507686 L 21.553216354311935 10.411388509191633 L 21.92820323027551 11.000000000000002 L 22.2504622962932 11.619053906074406 L 22.517540966287267 12.26383885339465,L 24.396926207859085 11.579798566743314" ></path></svg>