<svg  height="30" width="30"><path  d=" M 5.1519224698779205 13.263518223330697 L 5.038053019082545 14.128442572523417 L 5 15 L 5.038053019082545 15.871557427476583 L 5.1519224698779205 16.736481776669304 L 5.340741737109317 17.588190451025206 L 5.603073792140917 18.42020143325669 L 5.936922129633501 19.226182617406995 L 6.3397459621556145 20 L 6.808479557110083 20.735764363510462 L 7.33955556881022 21.427876096865393 L 7.928932188134525 22.071067811865476 L 8.572123903134607 22.66044443118978 L 9.26423563648954 23.191520442889917 L 10 23.66025403784439 L 10.773817382593005 24.0630778703665 L 11.579798566743314 24.396926207859085 L 12.411809548974793 24.65925826289068 L 13.263518223330697 24.84807753012208 L 14.128442572523419 24.961946980917453 L 15 25 L 15.871557427476581 24.961946980917453 L 16.736481776669304 24.84807753012208 L 17.588190451025206 24.65925826289068 L 18.420201433256686 24.396926207859085 L 19.226182617406995 24.0630778703665 L 20 23.66025403784439 L 20.735764363510462 23.191520442889917 L 21.427876096865393 22.66044443118978 L 22.071067811865476 22.071067811865476 L 22.66044443118978 21.427876096865393 L 23.191520442889917 20.735764363510462 L 23.660254037844386 20 L 24.0630778703665 19.226182617406995 L 24.39692620785908 18.42020143325669 L 24.65925826289068 17.588190451025206 L 24.84807753012208 16.736481776669304 L 24.961946980917453 15.871557427476583 L 25 15 L 24.961946980917453 14.128442572523417 L 24.84807753012208 13.263518223330697 L 24.65925826289068 12.41180954897479 L 24.396926207859085 11.579798566743314 L 24.0630778703665 10.773817382593005 L 23.66025403784439 10.000000000000002 L 23.19152044288992 9.264235636489541 L 22.66044443118978 8.572123903134607 L 22.071067811865476 7.928932188134525 L 21.427876096865397 7.339555568810221 L 20.73576436351046 6.808479557110081 L 20 6.339745962155613 L 19.226182617406995 5.936922129633501 L 18.42020143325669 5.603073792140917 L 17.58819045102521 5.340741737109319 L 16.736481776669308 5.1519224698779205 L 15.871557427476581 5.038053019082545 L 15.000000000000002 5 L 15.000000000000002 7 L 15.697245941981265 7.030442415266036 L 16.389185421335444 7.121537975902336 L 17.07055236082017 7.272593389687454 L 17.73616114660535 7.4824590337127335 L 18.380946093925594 7.7495377037068005 L 19 8.07179676972449 L 19.58861149080837 8.446783645688065 L 20.142300877492318 8.871644455048177 L 20.65685424949238 9.34314575050762 L 21.128355544951823 9.857699122507686 L 21.553216354311935 10.411388509191633 L 21.92820323027551 11.000000000000002 L 22.2504622962932 11.619053906074406 L 22.517540966287267 12.26383885339465 L 22.727406610312546 12.929447639179834 L 22.878462024097665 13.610814578664558 L 22.969557584733963 14.302754058018735 L 23 15 L 22.969557584733963 15.697245941981267 L 22.878462024097665 16.389185421335444 L 22.727406610312546 17.070552360820166 L 22.517540966287267 17.73616114660535 L 22.2504622962932 18.380946093925594 L 21.928203230275507 19 L 21.553216354311935 19.58861149080837 L 21.128355544951823 20.142300877492314 L 20.65685424949238 20.65685424949238 L 20.142300877492314 21.128355544951823 L 19.58861149080837 21.553216354311935 L 19 21.92820323027551 L 18.380946093925594 22.2504622962932 L 17.73616114660535 22.517540966287267 L 17.070552360820166 22.727406610312546 L 16.389185421335444 22.878462024097665 L 15.697245941981265 22.969557584733963 L 15 23 L 14.302754058018735 22.969557584733963 L 13.610814578664558 22.878462024097665 L 12.929447639179834 22.727406610312546 L 12.26383885339465 22.517540966287267 L 11.619053906074404 22.2504622962932 L 11 21.92820323027551 L 10.411388509191632 21.553216354311935 L 9.857699122507686 21.128355544951823 L 9.34314575050762 20.65685424949238 L 8.871644455048177 20.142300877492314 L 8.446783645688065 19.58861149080837 L 8.071796769724491 19 L 7.7495377037068005 18.380946093925594 L 7.4824590337127335 17.73616114660535 L 7.2725933896874535 17.070552360820166 L 7.121537975902336 16.389185421335444 L 7.030442415266036 15.697245941981267 L 7 15 L 7.030442415266036 14.302754058018735 L 7.121537975902336 13.610814578664558,L 5.1519224698779205 13.263518223330697" ></path></svg>