<svg  height="30" width="30"><path  d=" M 5 15 L 5.038053019082545 15.871557427476583 L 5.1519224698779205 16.736481776669304 L 5.340741737109317 17.588190451025206 L 5.603073792140917 18.42020143325669 L 5.936922129633501 19.226182617406995 L 6.3397459621556145 20 L 6.808479557110083 20.735764363510462 L 7.33955556881022 21.427876096865393 L 7.928932188134525 22.071067811865476 L 8.572123903134607 22.66044443118978 L 9.26423563648954 23.191520442889917 L 10 23.66025403784439 L 10.773817382593005 24.0630778703665 L 11.579798566743314 24.396926207859085 L 12.411809548974793 24.65925826289068 L 13.263518223330697 24.84807753012208 L 14.128442572523419 24.961946980917453 L 15 25 L 15.871557427476581 24.961946980917453 L 16.736481776669304 24.84807753012208 L 17.588190451025206 24.65925826289068 L 18.420201433256686 24.396926207859085 L 19.226182617406995 24.0630778703665 L 20 23.66025403784439 L 20.735764363510462 23.191520442889917 L 21.427876096865393 22.66044443118978 L 22.071067811865476 22.071067811865476 L 22.66044443118978 21.427876096865393 L 23.191520442889917 20.735764363510462 L 23.660254037844386 20 L 24.0630778703665 19.226182617406995 L 24.39692620785908 18.42020143325669 L 24.65925826289068 17.588190451025206 L 24.84807753012208 16.736481776669304 L 24.961946980917453 15.871557427476583 L 25 15 L 24.961946980917453 14.128442572523417 L 24.84807753012208 13.263518223330697 L 24.65925826289068 12.41180954897479 L 24.396926207859085 11.579798566743314 L 24.0630778703665 10.773817382593005 L 23.66025403784439 10.000000000000002 L 23.19152044288992 9.264235636489541 L 22.66044443118978 8.572123903134607 L 22.071067811865476 7.928932188134525 L 21.427876096865397 7.339555568810221 L 20.73576436351046 6.808479557110081 L 20 6.339745962155613 L 19.226182617406995 5.936922129633501 L 18.42020143325669 5.603073792140917 L 17.58819045102521 5.340741737109319 L 16.736481776669308 5.1519224698779205 L 15.871557427476581 5.038053019082545 L 15.000000000000002 5 L 15 9 L 15.522934456485949 9.022831811449526 L 16.041889066001584 9.091153481926753 L 16.552914270615126 9.20444504226559 L 17.052120859954012 9.36184427528455 L 17.535709570444197 9.562153277780101 L 18 9.803847577293368 L 18.441458618106275 10.085087734266049 L 18.856725658119238 10.403733341286133 L 19.242640687119284 10.757359312880716 L 19.59626665871387 11.143274341880764 L 19.914912265733953 11.558541381893725 L 20.196152422706632 12.000000000000002 L 20.437846722219902 12.464290429555804 L 20.63815572471545 12.947879140045988 L 20.79555495773441 13.447085729384876 L 20.908846518073247 13.958110933998418 L 20.977168188550472 14.477065543514051 L 21 15 L 20.977168188550472 15.52293445648595 L 20.908846518073247 16.041889066001584 L 20.79555495773441 16.552914270615126 L 20.63815572471545 17.052120859954012 L 20.4378467222199 17.535709570444197 L 20.196152422706632 18 L 19.91491226573395 18.441458618106275 L 19.59626665871387 18.856725658119238 L 19.242640687119284 19.242640687119284 L 18.856725658119235 19.59626665871387 L 18.441458618106275 19.91491226573395 L 18 20.196152422706632 L 17.535709570444197 20.4378467222199 L 17.052120859954012 20.63815572471545 L 16.552914270615126 20.79555495773441 L 16.04188906600158 20.908846518073247 L 15.522934456485949 20.977168188550472 L 15 21 L 14.477065543514051 20.977168188550472 L 13.958110933998418 20.908846518073247 L 13.447085729384876 20.79555495773441 L 12.947879140045988 20.63815572471545 L 12.464290429555803 20.4378467222199 L 12 20.196152422706632 L 11.558541381893724 19.91491226573395 L 11.143274341880765 19.59626665871387 L 10.757359312880716 19.242640687119284 L 10.40373334128613 18.856725658119238 L 10.08508773426605 18.441458618106275 L 9.803847577293368 18 L 9.562153277780101 17.535709570444197 L 9.36184427528455 17.052120859954012 L 9.20444504226559 16.552914270615126 L 9.091153481926753 16.041889066001584 L 9.022831811449526 15.52293445648595 L 9 15,L 5 15" ></path></svg>