<svg  height="30" width="30"><path  d=" M 6.339745962155611 10.000000000000002 L 5.9369221296334995 10.773817382593005 L 5.603073792140915 11.579798566743314 L 5.340741737109317 12.41180954897479 L 5.1519224698779205 13.263518223330697 L 5.038053019082545 14.128442572523417 L 5 15 L 5.038053019082545 15.871557427476583 L 5.1519224698779205 16.736481776669304 L 5.340741737109317 17.588190451025206 L 5.603073792140917 18.42020143325669 L 5.936922129633501 19.226182617406995 L 6.3397459621556145 20 L 6.808479557110083 20.735764363510462 L 7.33955556881022 21.427876096865393 L 7.928932188134525 22.071067811865476 L 8.572123903134607 22.66044443118978 L 9.26423563648954 23.191520442889917 L 10 23.66025403784439 L 10.773817382593005 24.0630778703665 L 11.579798566743314 24.396926207859085 L 12.411809548974793 24.65925826289068 L 13.263518223330697 24.84807753012208 L 14.128442572523419 24.961946980917453 L 15 25 L 15.871557427476581 24.961946980917453 L 16.736481776669304 24.84807753012208 L 17.588190451025206 24.65925826289068 L 18.420201433256686 24.396926207859085 L 19.226182617406995 24.0630778703665 L 20 23.66025403784439 L 20.735764363510462 23.191520442889917 L 21.427876096865393 22.66044443118978 L 22.071067811865476 22.071067811865476 L 22.66044443118978 21.427876096865393 L 23.191520442889917 20.735764363510462 L 23.660254037844386 20 L 24.0630778703665 19.226182617406995 L 24.39692620785908 18.42020143325669 L 24.65925826289068 17.588190451025206 L 24.84807753012208 16.736481776669304 L 24.961946980917453 15.871557427476583 L 25 15 L 24.961946980917453 14.128442572523417 L 24.84807753012208 13.263518223330697 L 24.65925826289068 12.41180954897479 L 24.396926207859085 11.579798566743314 L 24.0630778703665 10.773817382593005 L 23.66025403784439 10.000000000000002 L 23.19152044288992 9.264235636489541 L 22.66044443118978 8.572123903134607 L 22.071067811865476 7.928932188134525 L 21.427876096865397 7.339555568810221 L 20.73576436351046 6.808479557110081 L 20 6.339745962155613 L 19.226182617406995 5.936922129633501 L 18.42020143325669 5.603073792140917 L 17.58819045102521 5.340741737109319 L 16.736481776669308 5.1519224698779205 L 15.871557427476581 5.038053019082545 L 15.000000000000002 5 L 15 11 L 15.348622970990633 11.015221207633019 L 15.694592710667722 11.060768987951167 L 16.035276180410083 11.136296694843727 L 16.368080573302677 11.241229516856366 L 16.690473046962797 11.3747688518534 L 17 11.535898384862245 L 17.294305745404184 11.723391822844032 L 17.57115043874616 11.935822227524088 L 17.82842712474619 12.17157287525381 L 18.06417777247591 12.428849561253843 L 18.276608177155968 12.705694254595816 L 18.464101615137753 13 L 18.6252311481466 13.309526953037203 L 18.758770483143635 13.631919426697324 L 18.863703305156275 13.964723819589917 L 18.939231012048833 14.30540728933228 L 18.98477879236698 14.651377029009367 L 19 15 L 18.98477879236698 15.348622970990633 L 18.939231012048833 15.694592710667722 L 18.863703305156275 16.035276180410083 L 18.758770483143632 16.368080573302674 L 18.6252311481466 16.690473046962797 L 18.464101615137753 17 L 18.276608177155968 17.294305745404184 L 18.06417777247591 17.57115043874616 L 17.82842712474619 17.82842712474619 L 17.57115043874616 18.06417777247591 L 17.294305745404184 18.276608177155968 L 17 18.464101615137753 L 16.690473046962797 18.6252311481466 L 16.368080573302674 18.758770483143635 L 16.035276180410083 18.863703305156275 L 15.694592710667722 18.939231012048833 L 15.348622970990633 18.98477879236698 L 15 19 L 14.651377029009367 18.98477879236698 L 14.305407289332278 18.939231012048833 L 13.964723819589917 18.863703305156275 L 13.631919426697324 18.758770483143635 L 13.309526953037203 18.6252311481466 L 13 18.464101615137753 L 12.705694254595816 18.276608177155968 L 12.428849561253843 18.06417777247591 L 12.17157287525381 17.82842712474619 L 11.935822227524088 17.57115043874616 L 11.723391822844032 17.294305745404184 L 11.535898384862247 17 L 11.3747688518534 16.690473046962797 L 11.241229516856366 16.368080573302674 L 11.136296694843727 16.035276180410083 L 11.060768987951167 15.694592710667722 L 11.015221207633019 15.348622970990633 L 11 15 L 11.015221207633019 14.651377029009367 L 11.060768987951167 14.30540728933228 L 11.136296694843727 13.964723819589917 L 11.241229516856366 13.631919426697324 L 11.3747688518534 13.309526953037203 L 11.535898384862245 13,L 6.339745962155611 10.000000000000002" ></path></svg>