<svg  height="30" width="30"><path  d=" M 24.84807753012208 13.263518223330697 L 24.65925826289068 12.41180954897479 L 24.396926207859085 11.579798566743314 L 24.0630778703665 10.773817382593005 L 23.66025403784439 10.000000000000002 L 23.19152044288992 9.264235636489541 L 22.66044443118978 8.572123903134607 L 22.071067811865476 7.928932188134525 L 21.427876096865397 7.339555568810221 L 20.73576436351046 6.808479557110081 L 20 6.339745962155613 L 19.226182617406995 5.936922129633501 L 18.42020143325669 5.603073792140917 L 17.58819045102521 5.340741737109319 L 16.736481776669308 5.1519224698779205 L 15.871557427476581 5.038053019082545 L 15.000000000000002 5 L 15 11 L 15.348622970990633 11.015221207633019 L 15.694592710667722 11.060768987951167 L 16.035276180410083 11.136296694843727 L 16.368080573302677 11.241229516856366 L 16.690473046962797 11.3747688518534 L 17 11.535898384862245 L 17.294305745404184 11.723391822844032 L 17.57115043874616 11.935822227524088 L 17.82842712474619 12.17157287525381 L 18.06417777247591 12.428849561253843 L 18.276608177155968 12.705694254595816 L 18.464101615137753 13 L 18.6252311481466 13.309526953037203 L 18.758770483143635 13.631919426697324 L 18.863703305156275 13.964723819589917 L 18.939231012048833 14.30540728933228,L 24.84807753012208 13.263518223330697" ></path></svg>