<svg  height="30" width="30"><path  d=" M 15 25 L 15.871557427476581 24.961946980917453 L 16.736481776669304 24.84807753012208 L 17.588190451025206 24.65925826289068 L 18.420201433256686 24.396926207859085 L 19.226182617406995 24.0630778703665 L 20 23.66025403784439 L 20.735764363510462 23.191520442889917 L 21.427876096865393 22.66044443118978 L 22.071067811865476 22.071067811865476 L 22.66044443118978 21.427876096865393 L 23.191520442889917 20.735764363510462 L 23.660254037844386 20 L 24.0630778703665 19.226182617406995 L 24.39692620785908 18.42020143325669 L 24.65925826289068 17.588190451025206 L 24.84807753012208 16.736481776669304 L 24.961946980917453 15.871557427476583 L 25 15 L 24.961946980917453 14.128442572523417 L 24.84807753012208 13.263518223330697 L 24.65925826289068 12.41180954897479 L 24.396926207859085 11.579798566743314 L 24.0630778703665 10.773817382593005 L 23.66025403784439 10.000000000000002 L 23.19152044288992 9.264235636489541 L 22.66044443118978 8.572123903134607 L 22.071067811865476 7.928932188134525 L 21.427876096865397 7.339555568810221 L 20.73576436351046 6.808479557110081 L 20 6.339745962155613 L 19.226182617406995 5.936922129633501 L 18.42020143325669 5.603073792140917 L 17.58819045102521 5.340741737109319 L 16.736481776669308 5.1519224698779205 L 15.871557427476581 5.038053019082545 L 15.000000000000002 5 L 15 13 L 15.174311485495316 13.00761060381651 L 15.347296355333862 13.030384493975584 L 15.517638090205041 13.068148347421864 L 15.684040286651339 13.120614758428184 L 15.845236523481399 13.1873844259267 L 16 13.267949192431123 L 16.14715287270209 13.361695911422016 L 16.28557521937308 13.467911113762044 L 16.414213562373096 13.585786437626904 L 16.532088886237958 13.71442478062692 L 16.638304088577986 13.852847127297908 L 16.73205080756888 14 L 16.8126155740733 14.154763476518601 L 16.879385241571818 14.315959713348663 L 16.931851652578136 14.482361909794959 L 16.969615506024414 14.65270364466614 L 16.99238939618349 14.825688514504684 L 17 15 L 16.99238939618349 15.174311485495316 L 16.969615506024414 15.34729635533386 L 16.931851652578136 15.517638090205041 L 16.879385241571818 15.684040286651337 L 16.8126155740733 15.845236523481399 L 16.73205080756888 16 L 16.638304088577982 16.147152872702094 L 16.532088886237958 16.28557521937308 L 16.414213562373096 16.414213562373096 L 16.28557521937308 16.532088886237958 L 16.147152872702094 16.638304088577982 L 16 16.73205080756888 L 15.845236523481399 16.8126155740733 L 15.684040286651337 16.879385241571818 L 15.517638090205041 16.931851652578136 L 15.34729635533386 16.969615506024414 L 15.174311485495316 16.99238939618349 L 15 17,L 15 25" ></path></svg>