<svg  height="30" width="30"><path  d=" M 11.57979856674331 5.603073792140917 L 10.773817382593005 5.936922129633501 L 10 6.339745962155613 L 9.264235636489541 6.808479557110081 L 8.572123903134605 7.339555568810221 L 7.9289321881345245 7.928932188134525 L 7.339555568810219 8.572123903134607 L 6.808479557110081 9.264235636489541 L 6.339745962155611 10.000000000000002 L 5.9369221296334995 10.773817382593005 L 5.603073792140915 11.579798566743314 L 5.340741737109317 12.41180954897479 L 5.1519224698779205 13.263518223330697 L 5.038053019082545 14.128442572523417 L 5 15 L 5.038053019082545 15.871557427476583 L 5.1519224698779205 16.736481776669304 L 5.340741737109317 17.588190451025206 L 5.603073792140917 18.42020143325669 L 5.936922129633501 19.226182617406995 L 6.3397459621556145 20 L 6.808479557110083 20.735764363510462 L 7.33955556881022 21.427876096865393 L 7.928932188134525 22.071067811865476 L 8.572123903134607 22.66044443118978 L 9.26423563648954 23.191520442889917 L 10 23.66025403784439 L 10.773817382593005 24.0630778703665 L 11.579798566743314 24.396926207859085 L 12.411809548974793 24.65925826289068 L 13.263518223330697 24.84807753012208 L 14.128442572523419 24.961946980917453 L 15 25 L 15.871557427476581 24.961946980917453 L 16.736481776669304 24.84807753012208 L 17.588190451025206 24.65925826289068 L 18.420201433256686 24.396926207859085 L 19.226182617406995 24.0630778703665 L 20 23.66025403784439 L 20.735764363510462 23.191520442889917 L 21.427876096865393 22.66044443118978 L 22.071067811865476 22.071067811865476 L 22.66044443118978 21.427876096865393 L 23.191520442889917 20.735764363510462 L 23.660254037844386 20 L 24.0630778703665 19.226182617406995 L 24.39692620785908 18.42020143325669 L 24.65925826289068 17.588190451025206 L 24.84807753012208 16.736481776669304 L 24.961946980917453 15.871557427476583 L 25 15 L 24.961946980917453 14.128442572523417 L 24.84807753012208 13.263518223330697 L 24.65925826289068 12.41180954897479 L 24.396926207859085 11.579798566743314 L 24.0630778703665 10.773817382593005 L 23.66025403784439 10.000000000000002 L 23.19152044288992 9.264235636489541 L 22.66044443118978 8.572123903134607 L 22.071067811865476 7.928932188134525 L 21.427876096865397 7.339555568810221 L 20.73576436351046 6.808479557110081 L 20 6.339745962155613 L 19.226182617406995 5.936922129633501 L 18.42020143325669 5.603073792140917 L 17.58819045102521 5.340741737109319 L 16.736481776669308 5.1519224698779205 L 15.871557427476581 5.038053019082545 L 15.000000000000002 5 L 15 15 L 15 15 L 15 15 L 15 15 L 15 15 L 15 15 L 15 15 L 15 15 L 15 15 L 15 15 L 15 15 L 15 15 L 15 15 L 15 15 L 15 15 L 15 15 L 15 15 L 15 15 L 15 15 L 15 15 L 15 15 L 15 15 L 15 15 L 15 15 L 15 15 L 15 15 L 15 15 L 15 15 L 15 15 L 15 15 L 15 15 L 15 15 L 15 15 L 15 15 L 15 15 L 15 15 L 15 15 L 15 15 L 15 15 L 15 15 L 15 15 L 15 15 L 15 15 L 15 15 L 15 15 L 15 15 L 15 15 L 15 15 L 15 15 L 15 15 L 15 15 L 15 15 L 15 15 L 15 15 L 15 15 L 15 15 L 15 15 L 15 15 L 15 15 L 15 15 L 15 15 L 15 15 L 15 15 L 15 15 L 15 15 L 15 15 L 15 15 L 15 15 L 15 15,L 11.57979856674331 5.603073792140917" ></path></svg>