<svg  height="30" width="30"><g><path  d=" M 13.263518223330692 5.1519224698779205 L 11.57979856674331 5.603073792140917 L 10 6.339745962155613 L 8.572123903134605 7.339555568810221 L 7.339555568810219 8.572123903134607 L 6.339745962155611 10.000000000000002 L 5.603073792140915 11.579798566743314 L 5.1519224698779205 13.263518223330697 L 5 15 L 5.1519224698779205 16.736481776669304 L 5.603073792140917 18.42020143325669 L 6.3397459621556145 20 L 7.33955556881022 21.427876096865393 L 8.572123903134607 22.66044443118978 L 10 23.66025403784439 L 11.579798566743314 24.396926207859085 L 13.263518223330697 24.84807753012208 L 15 25 L 16.736481776669304 24.84807753012208 L 18.420201433256686 24.396926207859085 L 20 23.66025403784439 L 21.427876096865393 22.66044443118978 L 22.66044443118978 21.427876096865393 L 23.660254037844386 20 L 24.39692620785908 18.42020143325669 L 24.84807753012208 16.736481776669304 L 25 15 L 24.84807753012208 13.263518223330697 L 24.396926207859085 11.579798566743314 L 23.66025403784439 10.000000000000002 L 22.66044443118978 8.572123903134607 L 21.427876096865397 7.339555568810221 L 20 6.339745962155613 L 18.42020143325669 5.603073792140917 L 16.736481776669308 5.1519224698779205 L 15.000000000000002 5 L 15 11 L 15.694592710667722 11.060768987951167 L 16.368080573302677 11.241229516856366 L 17 11.535898384862245 L 17.57115043874616 11.935822227524088 L 18.06417777247591 12.428849561253843 L 18.464101615137753 13 L 18.758770483143635 13.631919426697324 L 18.939231012048833 14.30540728933228 L 19 15 L 18.939231012048833 15.694592710667722 L 18.758770483143632 16.368080573302674 L 18.464101615137753 17 L 18.06417777247591 17.57115043874616 L 17.57115043874616 18.06417777247591 L 17 18.464101615137753 L 16.368080573302674 18.758770483143635 L 15.694592710667722 18.939231012048833 L 15 19 L 14.305407289332278 18.939231012048833 L 13.631919426697324 18.758770483143635 L 13 18.464101615137753 L 12.428849561253843 18.06417777247591 L 11.935822227524088 17.57115043874616 L 11.535898384862247 17 L 11.241229516856366 16.368080573302674 L 11.060768987951167 15.694592710667722 L 11 15 L 11.060768987951167 14.30540728933228 L 11.241229516856366 13.631919426697324 L 11.535898384862245 13 L 11.935822227524088 12.428849561253843 L 12.428849561253841 11.935822227524088 L 13 11.535898384862245 L 13.631919426697324 11.241229516856366 L 14.305407289332278 11.060768987951167,L 13.263518223330692 5.1519224698779205" ></path></svg>