<svg  height="30" width="30"><g><path  d=" M 18.420201433256686 24.396926207859085 L 20 23.66025403784439 L 21.427876096865393 22.66044443118978 L 22.66044443118978 21.427876096865393 L 23.660254037844386 20 L 24.39692620785908 18.42020143325669 L 24.84807753012208 16.736481776669304 L 25 15 L 24.84807753012208 13.263518223330697 L 24.396926207859085 11.579798566743314 L 23.66025403784439 10.000000000000002 L 22.66044443118978 8.572123903134607 L 21.427876096865397 7.339555568810221 L 20 6.339745962155613 L 18.42020143325669 5.603073792140917 L 16.736481776669308 5.1519224698779205 L 15.000000000000002 5 L 15 13 L 15.347296355333862 13.030384493975584 L 15.684040286651339 13.120614758428184 L 16 13.267949192431123 L 16.28557521937308 13.467911113762044 L 16.532088886237958 13.71442478062692 L 16.73205080756888 14 L 16.879385241571818 14.315959713348663 L 16.969615506024414 14.65270364466614 L 17 15 L 16.969615506024414 15.34729635533386 L 16.879385241571818 15.684040286651337 L 16.73205080756888 16 L 16.532088886237958 16.28557521937308 L 16.28557521937308 16.532088886237958 L 16 16.73205080756888 L 15.684040286651337 16.879385241571818,L 18.420201433256686 24.396926207859085" ></path></svg>